<?xml version="1.0" encoding="UTF-8"?>
<svg id="Laag_1" data-name="Laag 1" xmlns="http://www.w3.org/2000/svg" version="1.1" viewBox="0 0 850.7 238.9">
  <defs>
    <style>
      .cls-1 {
        fill: #1d1d1b;
        stroke-width: 0px;
      }
    </style>
  </defs>
  <g>
    <path class="cls-1" d="M27.3,173.2c-8.2-3.7-14.7-8.8-19.5-15.3-4.8-6.4-7.3-13.6-7.6-21.6h28.2c.5,5.6,3.1,10.2,8,14,4.9,3.7,10.9,5.6,18.3,5.6s13.6-1.5,17.8-4.4c4.2-2.9,6.3-6.7,6.3-11.3s-2.3-8.6-7-11c-4.7-2.4-12.1-5-22.3-7.9-9.9-2.7-17.9-5.3-24.1-7.9-6.2-2.5-11.6-6.4-16.1-11.7-4.5-5.3-6.8-12.2-6.8-20.8s2.1-13.4,6.2-19.2c4.1-5.8,10.1-10.4,17.8-13.7,7.7-3.3,16.6-5,26.6-5,15,0,27,3.8,36.2,11.3,9.1,7.6,14,17.9,14.7,30.9h-27.2c-.5-5.9-2.9-10.6-7.2-14.1-4.3-3.5-10.1-5.3-17.4-5.3s-12.7,1.4-16.5,4.1c-3.8,2.7-5.7,6.3-5.7,10.7s1.3,6.4,3.8,8.8c2.5,2.4,5.6,4.3,9.3,5.6,3.7,1.4,9.1,3.1,16.2,5.1,9.5,2.5,17.4,5.1,23.5,7.8,6.1,2.6,11.4,6.5,15.9,11.6,4.5,5.1,6.8,11.9,6.9,20.3,0,7.5-2.1,14.2-6.2,20-4.1,5.9-10,10.5-17.5,13.8-7.6,3.3-16.4,5-26.6,5s-19.6-1.9-27.8-5.6Z"/>
    <path class="cls-1" d="M130.5,75.2c5.5-10.2,13-18.1,22.4-23.8,9.5-5.6,19.9-8.5,31.4-8.5s19.4,2,27.1,6.1c7.7,4.1,13.9,9.1,18.5,15.2v-19.1h27.4v131.5h-27.4v-19.6c-4.6,6.2-10.9,11.4-18.9,15.5-8,4.1-17,6.2-27.2,6.2s-21.6-2.9-31-8.7c-9.4-5.8-16.8-13.9-22.3-24.3-5.5-10.4-8.2-22.2-8.2-35.4s2.7-24.9,8.2-35.1ZM224.3,87.1c-3.7-6.7-8.6-11.8-14.7-15.3-6-3.5-12.6-5.3-19.6-5.3s-13.5,1.7-19.6,5.1c-6,3.4-10.9,8.4-14.7,15-3.7,6.6-5.6,14.4-5.6,23.5s1.9,17,5.6,23.9c3.7,6.8,8.7,12.1,14.8,15.6,6.1,3.6,12.6,5.4,19.5,5.4s13.5-1.7,19.6-5.3c6-3.5,10.9-8.6,14.7-15.4,3.7-6.8,5.6-14.7,5.6-23.8s-1.9-16.9-5.6-23.6Z"/>
    <path class="cls-1" d="M316.8,0v176.6h-27.2V0h27.2Z"/>
    <path class="cls-1" d="M372.4,170.3c-10-5.6-17.9-13.6-23.6-23.9-5.7-10.3-8.6-22.2-8.6-35.7s2.9-25.2,8.8-35.6c5.9-10.3,13.9-18.3,24.1-23.9,10.2-5.6,21.6-8.4,34.1-8.4s23.9,2.8,34.1,8.4c10.2,5.6,18.2,13.5,24.1,23.9,5.9,10.3,8.8,22.2,8.8,35.6s-3,25.2-9.1,35.6c-6,10.3-14.3,18.3-24.7,24-10.4,5.7-21.9,8.5-34.5,8.5s-23.6-2.8-33.7-8.5ZM425.7,150.1c6.1-3.3,11.1-8.4,14.9-15,3.8-6.7,5.7-14.8,5.7-24.3s-1.8-17.6-5.5-24.2c-3.7-6.6-8.5-11.6-14.6-14.9-6-3.3-12.6-5-19.6-5s-13.5,1.7-19.5,5c-6,3.3-10.7,8.3-14.2,14.9-3.5,6.6-5.3,14.7-5.3,24.2,0,14.2,3.6,25.1,10.9,32.8,7.2,7.7,16.4,11.6,27.3,11.6s13.6-1.7,19.7-5Z"/>
    <path class="cls-1" d="M591.8,49.4c8.2,4.3,14.6,10.7,19.2,19.1,4.6,8.4,6.9,18.6,6.9,30.6v77.6h-27v-73.5c0-11.8-2.9-20.8-8.8-27.1-5.9-6.3-13.9-9.4-24.1-9.4s-18.3,3.1-24.2,9.4c-6,6.3-9,15.3-9,27.1v73.5h-27.2V45.1h27.2v15c4.5-5.4,10.1-9.6,17.1-12.7,6.9-3,14.3-4.5,22.1-4.5s19.6,2.1,27.8,6.4Z"/>
    <path class="cls-1" d="M676.2,10.7v165.9h-27.2V10.7h27.2Z"/>
    <path class="cls-1" d="M809.1,20.9c13.3,6.8,23.5,16.5,30.8,29.1,7.2,12.7,10.9,27.4,10.9,44.3s-3.6,31.5-10.9,43.9c-7.2,12.4-17.5,21.9-30.8,28.5-13.3,6.6-28.8,9.9-46.4,9.9h-54.2V10.7h54.2c17.7,0,33.1,3.4,46.4,10.1ZM807.3,138.7c10.3-10.5,15.5-25.3,15.5-44.4s-5.2-34.3-15.5-45.1c-10.3-10.8-25.2-16.2-44.6-16.2h-27v121.5h27c19.4,0,34.3-5.3,44.6-15.8Z"/>
  </g>
  <g>
    <path class="cls-1" d="M22.2,201.9l-8.9,17.1v9.7h-4.4v-9.7L0,201.9h4.9l6.2,13.2,6.2-13.2h4.9Z"/>
    <path class="cls-1" d="M27.8,227.7c-1.6-.9-2.9-2.2-3.8-3.9-.9-1.7-1.4-3.6-1.4-5.8s.5-4.1,1.4-5.7c1-1.7,2.2-3,3.9-3.9,1.6-.9,3.5-1.3,5.5-1.3s3.9.5,5.5,1.3c1.6.9,2.9,2.2,3.9,3.9,1,1.7,1.4,3.6,1.4,5.7s-.5,4.1-1.5,5.7c-1,1.7-2.3,3-4,3.9-1.7.9-3.5,1.4-5.6,1.4s-3.8-.5-5.4-1.4ZM36.5,224.5c1-.5,1.8-1.4,2.4-2.4s.9-2.4.9-3.9-.3-2.8-.9-3.9c-.6-1.1-1.4-1.9-2.4-2.4-1-.5-2-.8-3.2-.8s-2.2.3-3.1.8-1.7,1.3-2.3,2.4c-.6,1.1-.8,2.4-.8,3.9,0,2.3.6,4.1,1.8,5.3,1.2,1.2,2.6,1.9,4.4,1.9s2.2-.3,3.2-.8Z"/>
    <path class="cls-1" d="M66.3,207.5v21.3h-4.4v-2.5c-.7.9-1.6,1.6-2.7,2.1-1.1.5-2.3.8-3.6.8s-3.2-.3-4.5-1c-1.3-.7-2.4-1.7-3.1-3.1-.8-1.4-1.1-3-1.1-4.9v-12.5h4.4v11.8c0,1.9.5,3.4,1.4,4.4,1,1,2.2,1.5,3.9,1.5s3-.5,3.9-1.5c1-1,1.4-2.5,1.4-4.4v-11.8h4.4Z"/>
    <path class="cls-1" d="M77.5,208.1c1.1-.6,2.3-.9,3.8-.9v4.6h-1.1c-1.7,0-3,.4-3.9,1.3-.9.9-1.3,2.4-1.3,4.6v11.2h-4.4v-21.3h4.4v3.1c.6-1.1,1.5-1.9,2.6-2.5Z"/>
    <path class="cls-1" d="M92.1,212.4c.9-1.6,2.1-2.9,3.6-3.8,1.5-.9,3.2-1.4,5.1-1.4s2.8.3,4.1.9c1.3.6,2.4,1.4,3.2,2.4v-10.3h4.4v28.5h-4.4v-3.2c-.7,1-1.7,1.9-3,2.5-1.3.7-2.7,1-4.4,1s-3.5-.5-5.1-1.4c-1.5-.9-2.7-2.2-3.6-3.9-.9-1.7-1.3-3.6-1.3-5.7s.4-4,1.3-5.7ZM107.2,214.3c-.6-1.1-1.4-1.9-2.4-2.5-1-.6-2-.8-3.2-.8s-2.2.3-3.2.8c-1,.6-1.8,1.4-2.4,2.4-.6,1.1-.9,2.3-.9,3.8s.3,2.8.9,3.9c.6,1.1,1.4,1.9,2.4,2.5,1,.6,2,.9,3.1.9s2.2-.3,3.2-.8c1-.6,1.8-1.4,2.4-2.5.6-1.1.9-2.4.9-3.8s-.3-2.7-.9-3.8Z"/>
    <path class="cls-1" d="M123.8,208.1c1.1-.6,2.3-.9,3.8-.9v4.6h-1.1c-1.7,0-3,.4-3.9,1.3-.9.9-1.3,2.4-1.3,4.6v11.2h-4.4v-21.3h4.4v3.1c.6-1.1,1.5-1.9,2.6-2.5Z"/>
    <path class="cls-1" d="M149.4,219.8h-16.2c.1,1.7.8,3.1,1.9,4.1,1.1,1,2.5,1.5,4.2,1.5,2.4,0,4-1,5-3h4.7c-.6,2-1.8,3.6-3.5,4.8-1.7,1.2-3.8,1.9-6.3,1.9s-3.9-.5-5.5-1.4c-1.6-.9-2.9-2.2-3.8-3.9-.9-1.7-1.4-3.6-1.4-5.8s.4-4.1,1.3-5.8c.9-1.7,2.1-2.9,3.7-3.8,1.6-.9,3.5-1.3,5.5-1.3s3.8.4,5.4,1.3c1.6.9,2.8,2.1,3.7,3.7.9,1.6,1.3,3.4,1.3,5.5s0,1.5-.2,2.2ZM144.9,216.2c0-1.6-.6-2.9-1.7-3.9-1.1-1-2.5-1.5-4.2-1.5s-2.8.5-3.9,1.4c-1.1,1-1.7,2.3-1.9,3.9h11.8Z"/>
    <path class="cls-1" d="M152.1,212.4c.9-1.6,2.1-2.9,3.6-3.8,1.5-.9,3.2-1.4,5.1-1.4s3.1.3,4.4,1c1.2.7,2.2,1.5,3,2.4v-3.1h4.4v21.3h-4.4v-3.2c-.7,1-1.8,1.8-3,2.5-1.3.7-2.8,1-4.4,1s-3.5-.5-5-1.4c-1.5-.9-2.7-2.2-3.6-3.9-.9-1.7-1.3-3.6-1.3-5.7s.4-4,1.3-5.7ZM167.3,214.3c-.6-1.1-1.4-1.9-2.4-2.5-1-.6-2-.8-3.2-.8s-2.2.3-3.2.8c-1,.6-1.8,1.4-2.4,2.4-.6,1.1-.9,2.3-.9,3.8s.3,2.8.9,3.9c.6,1.1,1.4,1.9,2.4,2.5,1,.6,2,.9,3.1.9s2.2-.3,3.2-.8c1-.6,1.8-1.4,2.4-2.5.6-1.1.9-2.4.9-3.8s-.3-2.7-.9-3.8Z"/>
    <path class="cls-1" d="M207,208.2c1.3.7,2.4,1.7,3.1,3.1.8,1.4,1.1,3,1.1,4.9v12.5h-4.4v-11.9c0-1.9-.5-3.4-1.4-4.4-1-1-2.3-1.5-3.9-1.5s-3,.5-3.9,1.5c-1,1-1.4,2.5-1.4,4.4v11.9h-4.4v-11.9c0-1.9-.5-3.4-1.4-4.4-1-1-2.3-1.5-3.9-1.5s-3,.5-3.9,1.5c-1,1-1.4,2.5-1.4,4.4v11.9h-4.4v-21.3h4.4v2.4c.7-.9,1.6-1.6,2.7-2,1.1-.5,2.3-.7,3.5-.7s3.2.4,4.6,1.1c1.3.7,2.4,1.8,3.1,3.1.6-1.3,1.6-2.3,3-3.1s2.8-1.1,4.4-1.1,3.2.3,4.5,1Z"/>
    <path class="cls-1" d="M220.1,223.5l-4.7,10.6h-2.9l2.7-10.6h4.8Z"/>
    <path class="cls-1" d="M250,207.5l-13,31.2h-4.6l4.3-10.3-8.4-20.9h4.9l6,16.2,6.2-16.2h4.6Z"/>
    <path class="cls-1" d="M255.5,227.7c-1.6-.9-2.9-2.2-3.8-3.9-.9-1.7-1.4-3.6-1.4-5.8s.5-4.1,1.4-5.7c1-1.7,2.2-3,3.9-3.9,1.6-.9,3.5-1.3,5.5-1.3s3.9.5,5.5,1.3c1.6.9,2.9,2.2,3.9,3.9,1,1.7,1.4,3.6,1.4,5.7s-.5,4.1-1.5,5.7c-1,1.7-2.3,3-4,3.9-1.7.9-3.5,1.4-5.6,1.4s-3.8-.5-5.4-1.4ZM264.1,224.5c1-.5,1.8-1.4,2.4-2.4s.9-2.4.9-3.9-.3-2.8-.9-3.9c-.6-1.1-1.4-1.9-2.4-2.4s-2-.8-3.2-.8-2.2.3-3.1.8c-1,.5-1.7,1.3-2.3,2.4-.6,1.1-.8,2.4-.8,3.9,0,2.3.6,4.1,1.8,5.3,1.2,1.2,2.6,1.9,4.4,1.9s2.2-.3,3.2-.8Z"/>
    <path class="cls-1" d="M294,207.5v21.3h-4.4v-2.5c-.7.9-1.6,1.6-2.7,2.1-1.1.5-2.3.8-3.6.8s-3.2-.3-4.5-1c-1.3-.7-2.4-1.7-3.1-3.1s-1.1-3-1.1-4.9v-12.5h4.4v11.8c0,1.9.5,3.4,1.4,4.4,1,1,2.2,1.5,3.9,1.5s3-.5,3.9-1.5c1-1,1.4-2.5,1.4-4.4v-11.8h4.4Z"/>
    <path class="cls-1" d="M305.2,208.1c1.1-.6,2.3-.9,3.8-.9v4.6h-1.1c-1.7,0-3,.4-3.9,1.3-.9.9-1.3,2.4-1.3,4.6v11.2h-4.4v-21.3h4.4v3.1c.6-1.1,1.5-1.9,2.6-2.5Z"/>
    <path class="cls-1" d="M327.3,208.1c1.3-.7,2.7-1,4.3-1s3.6.5,5.1,1.3c1.5.9,2.7,2.2,3.6,3.8.9,1.7,1.3,3.6,1.3,5.7s-.4,4-1.3,5.7c-.9,1.7-2.1,3-3.6,3.9-1.5.9-3.2,1.4-5.1,1.4s-3.1-.3-4.4-1c-1.3-.6-2.3-1.5-3-2.5v3.1h-4.4v-28.5h4.4v10.5c.7-1,1.8-1.9,3.1-2.5ZM336.3,214.2c-.6-1.1-1.4-1.9-2.4-2.4-1-.6-2.1-.8-3.2-.8s-2.2.3-3.1.8c-1,.6-1.8,1.4-2.4,2.5s-.9,2.4-.9,3.8.3,2.7.9,3.8c.6,1.1,1.4,1.9,2.4,2.5,1,.6,2,.8,3.1.8s2.2-.3,3.2-.9c1-.6,1.8-1.4,2.4-2.5.6-1.1.9-2.4.9-3.9s-.3-2.7-.9-3.8Z"/>
    <path class="cls-1" d="M351.4,208.1c1.1-.6,2.3-.9,3.8-.9v4.6h-1.1c-1.7,0-3,.4-3.9,1.3-.9.9-1.3,2.4-1.3,4.6v11.2h-4.4v-21.3h4.4v3.1c.6-1.1,1.5-1.9,2.6-2.5Z"/>
    <path class="cls-1" d="M357.5,212.4c.9-1.6,2.1-2.9,3.6-3.8,1.5-.9,3.2-1.4,5.1-1.4s3.1.3,4.4,1c1.2.7,2.2,1.5,3,2.4v-3.1h4.4v21.3h-4.4v-3.2c-.7,1-1.8,1.8-3,2.5-1.3.7-2.8,1-4.4,1s-3.5-.5-5-1.4c-1.5-.9-2.7-2.2-3.6-3.9-.9-1.7-1.3-3.6-1.3-5.7s.4-4,1.3-5.7ZM372.7,214.3c-.6-1.1-1.4-1.9-2.4-2.5-1-.6-2-.8-3.2-.8s-2.2.3-3.2.8c-1,.6-1.8,1.4-2.4,2.4-.6,1.1-.9,2.3-.9,3.8s.3,2.8.9,3.9c.6,1.1,1.4,1.9,2.4,2.5,1,.6,2,.9,3.1.9s2.2-.3,3.2-.8c1-.6,1.8-1.4,2.4-2.5.6-1.1.9-2.4.9-3.8s-.3-2.7-.9-3.8Z"/>
    <path class="cls-1" d="M397.5,208.2c1.3.7,2.4,1.7,3.1,3.1.7,1.4,1.1,3,1.1,4.9v12.5h-4.4v-11.9c0-1.9-.5-3.4-1.4-4.4-1-1-2.2-1.5-3.9-1.5s-3,.5-3.9,1.5c-1,1-1.4,2.5-1.4,4.4v11.9h-4.4v-21.3h4.4v2.4c.7-.9,1.6-1.6,2.8-2,1.1-.5,2.3-.7,3.6-.7s3.2.3,4.5,1Z"/>
    <path class="cls-1" d="M405.6,212.4c.9-1.6,2.1-2.9,3.6-3.8s3.2-1.4,5.1-1.4,2.8.3,4.1.9c1.3.6,2.4,1.4,3.2,2.4v-10.3h4.4v28.5h-4.4v-3.2c-.7,1-1.7,1.9-3,2.5-1.3.7-2.7,1-4.4,1s-3.5-.5-5.1-1.4-2.7-2.2-3.6-3.9c-.9-1.7-1.3-3.6-1.3-5.7s.4-4,1.3-5.7ZM420.7,214.3c-.6-1.1-1.4-1.9-2.4-2.5-1-.6-2-.8-3.2-.8s-2.2.3-3.2.8c-1,.6-1.8,1.4-2.4,2.4s-.9,2.3-.9,3.8.3,2.8.9,3.9c.6,1.1,1.4,1.9,2.4,2.5,1,.6,2,.9,3.1.9s2.2-.3,3.2-.8c1-.6,1.8-1.4,2.4-2.5.6-1.1.9-2.4.9-3.8s-.3-2.7-.9-3.8Z"/>
    <path class="cls-1" d="M468.1,212.9v3.7h-28.9v-3.7h28.9Z"/>
    <path class="cls-1" d="M516.1,201.9l-7.9,26.8h-5l-5.6-20.3-6,20.3h-4.9s-7.6-26.8-7.6-26.8h4.7l5.6,21.8,6-21.8h4.9l5.6,21.7,5.6-21.7h4.7Z"/>
    <path class="cls-1" d="M537.5,219.8h-16.2c.1,1.7.8,3.1,1.9,4.1,1.1,1,2.5,1.5,4.2,1.5,2.4,0,4-1,5-3h4.7c-.6,2-1.8,3.6-3.5,4.8s-3.8,1.9-6.3,1.9-3.9-.5-5.5-1.4c-1.6-.9-2.9-2.2-3.8-3.9-.9-1.7-1.4-3.6-1.4-5.8s.4-4.1,1.3-5.8c.9-1.7,2.1-2.9,3.7-3.8,1.6-.9,3.5-1.3,5.5-1.3s3.8.4,5.4,1.3c1.6.9,2.8,2.1,3.7,3.7.9,1.6,1.3,3.4,1.3,5.5s0,1.5-.2,2.2ZM533.1,216.2c0-1.6-.6-2.9-1.7-3.9s-2.5-1.5-4.2-1.5-2.8.5-3.9,1.4c-1.1,1-1.7,2.3-1.9,3.9h11.8Z"/>
    <path class="cls-1" d="M579.1,208.2c1.3.7,2.4,1.7,3.1,3.1.8,1.4,1.1,3,1.1,4.9v12.5h-4.4v-11.9c0-1.9-.5-3.4-1.4-4.4-1-1-2.3-1.5-3.9-1.5s-3,.5-3.9,1.5c-1,1-1.4,2.5-1.4,4.4v11.9h-4.4v-11.9c0-1.9-.5-3.4-1.4-4.4-1-1-2.3-1.5-3.9-1.5s-3,.5-3.9,1.5c-1,1-1.4,2.5-1.4,4.4v11.9h-4.4v-21.3h4.4v2.4c.7-.9,1.6-1.6,2.7-2,1.1-.5,2.3-.7,3.5-.7s3.2.4,4.6,1.1,2.4,1.8,3.1,3.1c.6-1.3,1.6-2.3,3-3.1s2.8-1.1,4.4-1.1,3.2.3,4.5,1Z"/>
    <path class="cls-1" d="M587.2,212.4c.9-1.6,2.1-2.9,3.6-3.8,1.5-.9,3.2-1.4,5.1-1.4s3.1.3,4.4,1c1.2.7,2.2,1.5,3,2.4v-3.1h4.4v21.3h-4.4v-3.2c-.7,1-1.8,1.8-3,2.5-1.3.7-2.8,1-4.4,1s-3.5-.5-5-1.4-2.7-2.2-3.6-3.9c-.9-1.7-1.3-3.6-1.3-5.7s.4-4,1.3-5.7ZM602.4,214.3c-.6-1.1-1.4-1.9-2.4-2.5-1-.6-2-.8-3.2-.8s-2.2.3-3.2.8c-1,.6-1.8,1.4-2.4,2.4-.6,1.1-.9,2.3-.9,3.8s.3,2.8.9,3.9c.6,1.1,1.4,1.9,2.4,2.5,1,.6,2,.9,3.1.9s2.2-.3,3.2-.8c1-.6,1.8-1.4,2.4-2.5.6-1.1.9-2.4.9-3.8s-.3-2.7-.9-3.8Z"/>
    <path class="cls-1" d="M620.3,218.1l9.8,10.6h-5.9l-7.9-9.1v9.1h-4.4v-28.5h4.4v16.6l7.7-9.3h6.1l-9.8,10.6Z"/>
    <path class="cls-1" d="M651,219.8h-16.2c.1,1.7.8,3.1,1.9,4.1,1.1,1,2.5,1.5,4.2,1.5,2.4,0,4-1,5-3h4.7c-.6,2-1.8,3.6-3.5,4.8s-3.8,1.9-6.3,1.9-3.9-.5-5.5-1.4c-1.6-.9-2.9-2.2-3.8-3.9-.9-1.7-1.4-3.6-1.4-5.8s.4-4.1,1.3-5.8c.9-1.7,2.1-2.9,3.7-3.8,1.6-.9,3.5-1.3,5.5-1.3s3.8.4,5.4,1.3c1.6.9,2.8,2.1,3.7,3.7.9,1.6,1.3,3.4,1.3,5.5s0,1.5-.2,2.2ZM646.6,216.2c0-1.6-.6-2.9-1.7-3.9s-2.5-1.5-4.2-1.5-2.8.5-3.9,1.4c-1.1,1-1.7,2.3-1.9,3.9h11.8Z"/>
    <path class="cls-1" d="M662.6,203.9c-.5-.5-.8-1.2-.8-2s.3-1.5.8-2,1.2-.8,2-.8,1.4.3,2,.8.8,1.2.8,2-.3,1.5-.8,2-1.2.8-2,.8-1.5-.3-2-.8ZM666.8,207.5v21.3h-4.4v-21.3h4.4Z"/>
    <path class="cls-1" d="M676.1,211.1v11.8c0,.8.2,1.4.6,1.7.4.3,1,.5,1.9.5h2.7v3.7h-3.5c-2,0-3.5-.5-4.6-1.4-1.1-.9-1.6-2.4-1.6-4.5v-11.8h-2.5v-3.6h2.5v-5.3h4.4v5.3h5.2v3.6h-5.2Z"/>
    <path class="cls-1" d="M707.5,208.2c1.3.7,2.3,1.7,3,3.1.7,1.4,1.1,3,1.1,4.9v12.5h-4.4v-11.9c0-1.9-.5-3.4-1.4-4.4-1-1-2.3-1.5-3.9-1.5s-3,.5-3.9,1.5c-1,1-1.4,2.5-1.4,4.4v11.9h-4.4v-28.5h4.4v9.8c.7-.9,1.7-1.6,2.8-2.1,1.1-.5,2.4-.7,3.8-.7s3.1.3,4.3,1Z"/>
    <path class="cls-1" d="M715.5,212.4c.9-1.6,2.1-2.9,3.6-3.8,1.5-.9,3.2-1.4,5.1-1.4s3.1.3,4.4,1c1.2.7,2.2,1.5,3,2.4v-3.1h4.4v21.3h-4.4v-3.2c-.7,1-1.8,1.8-3,2.5-1.3.7-2.8,1-4.4,1s-3.5-.5-5-1.4-2.7-2.2-3.6-3.9c-.9-1.7-1.3-3.6-1.3-5.7s.4-4,1.3-5.7ZM730.7,214.3c-.6-1.1-1.4-1.9-2.4-2.5-1-.6-2-.8-3.2-.8s-2.2.3-3.2.8c-1,.6-1.8,1.4-2.4,2.4-.6,1.1-.9,2.3-.9,3.8s.3,2.8.9,3.9c.6,1.1,1.4,1.9,2.4,2.5,1,.6,2,.9,3.1.9s2.2-.3,3.2-.8c1-.6,1.8-1.4,2.4-2.5.6-1.1.9-2.4.9-3.8s-.3-2.7-.9-3.8Z"/>
    <path class="cls-1" d="M747.6,208.1c1.3-.7,2.7-1,4.4-1s3.5.5,5.1,1.4,2.7,2.2,3.6,3.8,1.3,3.5,1.3,5.7-.4,4-1.3,5.7c-.9,1.7-2.1,3-3.6,3.9s-3.2,1.4-5.1,1.4-3.1-.3-4.3-1c-1.3-.7-2.3-1.5-3.1-2.4v13.2h-4.4v-31.4h4.4v3.1c.7-1,1.8-1.8,3-2.5ZM756.6,214.2c-.6-1.1-1.4-1.9-2.4-2.4-1-.6-2.1-.8-3.2-.8s-2.2.3-3.1.8c-1,.6-1.8,1.4-2.4,2.5s-.9,2.4-.9,3.8.3,2.7.9,3.8c.6,1.1,1.4,1.9,2.4,2.5,1,.6,2,.8,3.1.8s2.2-.3,3.2-.9c1-.6,1.8-1.4,2.4-2.5.6-1.1.9-2.4.9-3.9s-.3-2.7-.9-3.8Z"/>
    <path class="cls-1" d="M772.2,208.1c1.3-.7,2.7-1,4.4-1s3.5.5,5.1,1.4,2.7,2.2,3.6,3.8,1.3,3.5,1.3,5.7-.4,4-1.3,5.7c-.9,1.7-2.1,3-3.6,3.9s-3.2,1.4-5.1,1.4-3.1-.3-4.3-1c-1.3-.7-2.3-1.5-3.1-2.4v13.2h-4.4v-31.4h4.4v3.1c.7-1,1.8-1.8,3-2.5ZM781.2,214.2c-.6-1.1-1.4-1.9-2.4-2.4-1-.6-2.1-.8-3.2-.8s-2.2.3-3.1.8c-1,.6-1.8,1.4-2.4,2.5s-.9,2.4-.9,3.8.3,2.7.9,3.8c.6,1.1,1.4,1.9,2.4,2.5,1,.6,2,.8,3.1.8s2.2-.3,3.2-.9c1-.6,1.8-1.4,2.4-2.5.6-1.1.9-2.4.9-3.9s-.3-2.7-.9-3.8Z"/>
    <path class="cls-1" d="M808.7,219.8h-16.2c.1,1.7.8,3.1,1.9,4.1,1.1,1,2.5,1.5,4.2,1.5,2.4,0,4-1,5-3h4.7c-.6,2-1.8,3.6-3.5,4.8s-3.8,1.9-6.3,1.9-3.9-.5-5.5-1.4c-1.6-.9-2.9-2.2-3.8-3.9-.9-1.7-1.4-3.6-1.4-5.8s.4-4.1,1.3-5.8c.9-1.7,2.1-2.9,3.7-3.8,1.6-.9,3.5-1.3,5.5-1.3s3.8.4,5.4,1.3c1.6.9,2.8,2.1,3.7,3.7.9,1.6,1.3,3.4,1.3,5.5s0,1.5-.2,2.2ZM804.2,216.2c0-1.6-.6-2.9-1.7-3.9s-2.5-1.5-4.2-1.5-2.8.5-3.9,1.4c-1.1,1-1.7,2.3-1.9,3.9h11.8Z"/>
    <path class="cls-1" d="M826.8,208.2c1.3.7,2.4,1.7,3.1,3.1.7,1.4,1.1,3,1.1,4.9v12.5h-4.4v-11.9c0-1.9-.5-3.4-1.4-4.4-1-1-2.3-1.5-3.9-1.5s-3,.5-3.9,1.5c-1,1-1.4,2.5-1.4,4.4v11.9h-4.4v-21.3h4.4v2.4c.7-.9,1.6-1.6,2.8-2,1.1-.5,2.3-.7,3.6-.7s3.2.3,4.5,1Z"/>
    <path class="cls-1" d="M834.8,228.2c-.5-.5-.8-1.2-.8-2s.3-1.5.8-2,1.2-.8,2-.8,1.4.3,2,.8.8,1.2.8,2-.3,1.5-.8,2-1.2.8-2,.8-1.5-.3-2-.8Z"/>
  </g>
</svg>